:FULLY-SPECIFIED
:FORCE-ALL-JOINTS-BE-3DOF
:DEGREES
1835
root 6.36116 13.9641 27.821 1061.3 54.9218 339.382
lfemur -53.4356 25.8518 1.63436
ltibia 63.6921 0 0
lfoot -2.9342 -7.89454 0
ltoes -18.6659 0 0
rfemur 4.25054 -5.116 17.8527
rtibia 48.8915 0 0
rfoot -26.9008 -29.6315 0
rtoes -28.7039 0 0
lowerback 14.0846 4.22532 6.6311
upperback -0.46337 7.22538 4.64281
thorax -8.23185 3.36075 -0.249934
lowerneck -3.58629 11.0155 3.90816
upperneck 7.06945 14.7847 -2.8484
head 3.50483 7.36448 -0.908261
lclavicle -2.27855e-14 -3.67747e-14 0
lhumerus 65.5206 16.0381 107.917
lradius 7.75389 0 0
lwrist -86.482 0 0
lhand -33.3983 42.3692 0
lfingers 7.12502 0 0
lthumb -6.598 72.246 0
rclavicle -2.27855e-14 -3.67747e-14 0
rhumerus -73.4214 10.415 -82.7874
rradius 127.489 0 0
rwrist -148.799 0 0
rhand -66.2399 -369.109 0
rfingers 7.12502 0 0
rthumb -38.0851 265.15 0
1836
root 6.43034 13.951 27.8257 1061.03 54.6931 338.928
lfemur -53.654 26.3424 1.63367
ltibia 64.6199 0 0
lfoot -3.63851 -8.01382 0
ltoes -19.5498 0 0
rfemur 4.32246 -5.02719 17.8261
rtibia 48.6208 0 0
rfoot -26.6897 -29.7591 0
rtoes -28.907 0 0
lowerback 14.0826 4.32356 6.59903
upperback -0.486574 7.35515 4.67536
thorax -8.2574 3.42472 -0.223756
lowerneck -3.47229 11.1674 4.04557
upperneck 7.00154 14.9921 -2.98504
head 3.49474 7.46632 -0.96983
lclavicle -2.36754e-14 -3.85088e-14 0
lhumerus 65.1328 16.0321 108.119
lradius 8.09383 0 0
lwrist -86.6198 0 0
lhand -33.112 42.1813 0
lfingers 7.12502 0 0
lthumb -6.3217 72.0648 0
rclavicle -2.36754e-14 -3.85088e-14 0
rhumerus -73.4046 10.5404 -82.8439
rradius 127.324 0 0
rwrist -146.707 0 0
rhand -65.4141 -374.784 0
rfingers 7.12502 0 0
rthumb -37.3021 265.987 0
1837
root 6.49953 13.9378 27.8304 1060.77 54.4722 338.492
lfemur -53.8664 26.8137 1.63379
ltibia 65.5173 0 0
lfoot -4.31878 -8.12509 0
ltoes -20.4043 0 0
rfemur 4.3933 -4.94165 17.8003
rtibia 48.3586 0 0
rfoot -26.488 -29.8812 0
rtoes -29.1037 0 0
lowerback 14.0801 4.41851 6.56961
upperback -0.508882 7.48079 4.70711
thorax -8.28144 3.48663 -0.198966
lowerneck -3.36132 11.3167 4.17947
upperneck 6.93654 15.1959 -3.11865
head 3.48548 7.56642 -1.02978
lclavicle -2.45978e-14 -4.01578e-14 0
lhumerus 64.7603 16.0233 108.309
lradius 8.41985 0 0
lwrist -86.7512 0 0
lhand -32.836 41.9988 0
lfingers 7.12502 0 0
lthumb -6.05529 71.8888 0
rclavicle -2.45978e-14 -4.01578e-14 0
rhumerus -73.3932 10.6632 -82.9082
rradius 127.158 0 0
rwrist -144.647 0 0
rhand -64.5835 -380.251 0
rfingers 7.12502 0 0
rthumb -36.5141 266.814 0
1838
root 6.56872 13.9247 27.835 1060.52 54.2596 338.081
lfemur -54.0724 27.2639 1.63486
ltibia 66.3803 0 0
lfoot -4.97201 -8.22823 0
ltoes -21.2255 0 0
rfemur 4.46375 -4.85895 17.7749
rtibia 48.1057 0 0
rfoot -26.2971 -29.9976 0
rtoes -29.2935 0 0
lowerback 14.0769 4.50973 6.54326
upperback -0.530176 7.60176 4.73804
thorax -8.30378 3.54621 -0.17569
lowerneck -3.2538 11.4632 4.30971
upperneck 6.87485 15.3962 -3.24922
head 3.47716 7.66477 -1.08807
lclavicle -2.55521e-14 -4.17138e-14 0
lhumerus 64.4084 16.0125 108.486
lradius 8.72795 0 0
lwrist -86.8784 0 0
lhand -32.5719 41.8228 0
lfingers 7.12502 0 0
lthumb -5.8004 71.719 0
rclavicle -2.55521e-14 -4.17138e-14 0
rhumerus -73.3901 10.7834 -82.9818
rradius 126.996 0 0
rwrist -142.631 0 0
rhand -63.7507 -385.495 0
rfingers 7.12502 0 0
rthumb -35.7235 267.635 0
1839
root 6.63791 13.9115 27.8397 1060.3 54.0556 337.698
lfemur -54.2718 27.6915 1.63702
ltibia 67.205 0 0
lfoot -5.59525 -8.32312 0
ltoes -22.0099 0 0
rfemur 4.53451 -4.77866 17.75
rtibia 47.8629 0 0
rfoot -26.1182 -30.1077 0
rtoes -29.4762 0 0
lowerback 14.0731 4.59676 6.52042
upperback -0.550338 7.71753 4.76814
thorax -8.32425 3.60319 -0.154056
lowerneck -3.15015 11.6071 4.43618
upperneck 6.81687 15.5929 -3.37672
head 3.46985 7.76139 -1.14462
lclavicle -2.65375e-14 -4.31689e-14 0
lhumerus 64.0821 16.0002 108.648
lradius 9.01412 0 0
lwrist -87.0032 0 0
lhand -32.3215 41.6542 0
lfingers 7.12502 0 0
lthumb -5.55867 71.5564 0
rclavicle -2.65375e-14 -4.31689e-14 0
rhumerus -73.398 10.9006 -83.0658
rradius 126.838 0 0
rwrist -140.667 0 0
rhand -62.918 -390.501 0
rfingers 7.12502 0 0
rthumb -34.9325 268.457 0
1840
root 6.7071 13.8984 27.8444 1060.11 53.8606 337.351
lfemur -54.4644 28.0946 1.6404
ltibia 67.9872 0 0
lfoot -6.18552 -8.40964 0
ltoes -22.7537 0 0
rfemur 4.60628 -4.70033 17.7252
rtibia 47.6312 0 0
rfoot -25.9527 -30.2112 0
rtoes -29.6515 0 0
lowerback 14.0687 4.67918 6.50149
upperback -0.569249 7.82759 4.79742
thorax -8.34267 3.65731 -0.134193
lowerneck -3.05077 11.7483 4.55876
upperneck 6.763 15.7861 -3.50114
head 3.46365 7.85629 -1.19939
lclavicle -2.75534e-14 -4.45152e-14 0
lhumerus 63.7868 15.9874 108.795
lradius 9.27438 0 0
lwrist -87.1277 0 0
lhand -32.0863 41.4942 0
lfingers 7.12502 0 0
lthumb -5.33172 71.4021 0
rclavicle -2.75534e-14 -4.45152e-14 0
rhumerus -73.4197 11.0147 -83.1618
rradius 126.688 0 0
rwrist -138.765 0 0
rhand -62.0881 -395.253 0
rfingers 7.12502 0 0
rthumb -34.1434 269.286 0
1841
root 6.77629 13.8852 27.8491 1059.95 53.6752 337.044
lfemur -54.6498 28.4715 1.64515
ltibia 68.7232 0 0
lfoot -6.73984 -8.48767 0
ltoes -23.4532 0 0
rfemur 4.67977 -4.62353 17.7004
rtibia 47.4114 0 0
rfoot -25.8019 -30.3075 0
rtoes -29.8192 0 0
lowerback 14.0635 4.75654 6.48692
upperback -0.586793 7.93141 4.82585
thorax -8.35886 3.7083 -0.116226
lowerneck -2.95609 11.8868 4.67732
upperneck 6.71363 15.9758 -3.62246
head 3.45865 7.94948 -1.25233
lclavicle -2.85989e-14 -4.5745e-14 0
lhumerus 63.5275 15.9747 108.926
lradius 9.50472 0 0
lwrist -87.2538 0 0
lhand -31.8682 41.3436 0
lfingers 7.12502 0 0
lthumb -5.12119 71.2569 0
rclavicle -2.85989e-14 -4.5745e-14 0
rhumerus -73.458 11.1255 -83.271
rradius 126.549 0 0
rwrist -136.937 0 0
rhand -61.2633 -399.737 0
rfingers 7.12502 0 0
rthumb -33.3587 270.128 0
1842
root 6.84548 13.8721 27.8538 1059.83 53.4997 336.782
lfemur -54.8279 28.8206 1.65141
ltibia 69.4088 0 0
lfoot -7.25525 -8.5571 0
ltoes -24.1047 0 0
rfemur 4.75567 -4.54781 17.6754
rtibia 47.2043 0 0
rfoot -25.667 -30.3963 0
rtoes -29.979 0 0
lowerback 14.0575 4.82839 6.47711
upperback -0.60285 8.02845 4.85344
thorax -8.37264 3.7559 -0.100285
lowerneck -2.86652 12.0226 4.79174
upperneck 6.66916 16.162 -3.74065
head 3.45494 8.04096 -1.30337
lclavicle -2.96735e-14 -4.68503e-14 0
lhumerus 63.3096 15.9628 109.039
lradius 9.70114 0 0
lwrist -87.3836 0 0
lhand -31.6688 41.2036 0
lfingers 7.12502 0 0
lthumb -4.92869 71.1219 0
rclavicle -2.96735e-14 -4.68503e-14 0
rhumerus -73.5157 11.2329 -83.3949
rradius 126.423 0 0
rwrist -135.191 0 0
rhand -60.446 -403.937 0
rfingers 7.12502 0 0
rthumb -32.5805 270.989 0
